<?xml version="1.0" standalone="no"?>
<!DOCTYPE svg PUBLIC "-//W3C//DTD SVG 20010904//EN"
 "http://www.w3.org/TR/2001/REC-SVG-20010904/DTD/svg10.dtd">
<svg version="1.0" xmlns="http://www.w3.org/2000/svg"
 width="310.000000pt" height="310.000000pt" viewBox="0 0 310.000000 310.000000"
 preserveAspectRatio="xMidYMid meet">
<metadata>
Created by potrace 1.14, written by Peter Selinger 2001-2017
</metadata>
<g transform="translate(0.000000,310.000000) scale(0.100000,-0.100000)"
fill="#000000" stroke="none">
<path d="M0 1550 l0 -1550 1550 0 1550 0 0 1550 0 1550 -1550 0 -1550 0 0
-1550z m1410 885 c24 -13 30 -13 40 0 7 8 16 15 20 15 10 0 20 -123 11 -133
-4 -4 -19 13 -32 39 -30 58 -78 87 -132 80 -73 -9 -109 -64 -110 -170 -1 -116
39 -170 127 -170 66 -1 102 18 127 66 23 46 43 51 28 8 -25 -70 -113 -109
-205 -90 -130 27 -189 151 -129 269 48 95 163 134 255 86z m405 14 c49 -14
101 -51 126 -93 21 -35 26 -117 8 -163 -46 -121 -223 -160 -325 -71 -47 42
-67 83 -68 143 -1 130 125 221 259 184z m-536 -487 c84 -188 92 -205 101 -196
5 5 33 68 63 139 l53 130 123 3 c84 2 121 -1 116 -8 -4 -6 -12 -10 -18 -9 -47
6 -47 7 -47 -136 0 -130 1 -137 24 -160 30 -30 81 -40 133 -26 68 19 78 37 81
166 4 120 -5 155 -38 155 -10 0 -22 5 -25 10 -4 6 25 10 79 10 51 0 86 -4 86
-10 0 -5 -10 -10 -23 -10 -42 0 -47 -17 -47 -146 0 -116 -1 -124 -25 -153 -36
-41 -83 -55 -169 -47 -39 4 -123 7 -186 7 -67 1 -100 4 -80 7 l35 7 3 153 c1
83 -1 152 -6 152 -7 0 -16 -19 -101 -220 -22 -52 -46 -95 -52 -95 -7 0 -42 65
-78 145 -97 210 -90 207 -91 43 0 -130 2 -145 20 -163 11 -11 28 -21 38 -21
29 -2 -61 -18 -105 -18 -50 -1 -65 15 -23 24 17 4 35 15 40 26 6 11 9 76 8
156 l-3 138 -30 3 c-16 2 -34 8 -39 13 -6 5 21 9 70 9 l79 0 34 -78z m502
-462 c28 -58 64 -133 80 -167 21 -47 35 -64 54 -69 52 -13 22 -24 -65 -24 -89
0 -119 12 -60 24 35 7 37 14 10 66 l-20 40 -89 0 -89 0 -17 -42 c-16 -40 -16
-43 1 -55 10 -7 26 -13 36 -13 10 0 18 -4 18 -10 0 -6 -31 -10 -74 -10 -73 0
-74 0 -107 38 -90 103 -244 260 -251 256 -4 -3 -8 -54 -8 -113 0 -94 3 -112
21 -135 11 -14 29 -26 40 -26 10 0 19 -4 19 -10 0 -6 -35 -10 -85 -10 -47 0
-85 4 -85 8 0 5 16 16 35 25 l35 17 0 145 0 146 -30 6 c-52 10 -44 23 13 23
l55 0 78 -87 c108 -122 177 -193 186 -193 12 0 10 218 -2 241 -6 10 -17 19
-25 19 -7 0 -17 5 -20 10 -4 6 21 10 67 9 49 0 66 -3 53 -9 -39 -15 -43 -32
-47 -183 -3 -134 -1 -147 14 -147 13 0 38 41 88 145 38 80 70 148 70 151 0 14
34 54 41 47 4 -4 31 -55 60 -113z m673 -1144 c1 -19 -2 -32 -6 -29 -5 2 -8 20
-8 40 0 46 13 36 14 -11z m-46 -12 c-3 -27 -4 -26 -9 8 -3 22 -1 34 4 29 5 -5
7 -21 5 -37z m239 -6 c-2 -13 -4 -5 -4 17 -1 22 1 32 4 23 2 -10 2 -28 0 -40z
m-330 -5 c-3 -10 -5 -2 -5 17 0 19 2 27 5 18 2 -10 2 -26 0 -35z m37 20 c-10
-40 -14 -41 -14 -5 0 18 5 32 10 32 6 0 8 -11 4 -27z m148 -2 c2 -17 1 -28 -4
-25 -8 5 -12 54 -4 54 2 0 6 -13 8 -29z m90 -1 c-2 -16 -6 -30 -8 -30 -2 0 -4
14 -4 30 0 17 4 30 8 30 5 0 7 -13 4 -30z m190 0 c-2 -16 -6 -30 -8 -30 -2 0
-4 14 -4 30 0 17 4 30 8 30 5 0 7 -13 4 -30z m-222 10 c0 -5 -4 -10 -10 -10
-5 0 -10 5 -10 10 0 6 5 10 10 10 6 0 10 -4 10 -10z m410 -160 c0 -7 -478 -10
-1415 -10 -937 0 -1415 3 -1415 10 0 7 478 10 1415 10 937 0 1415 -3 1415 -10z"/>
<path d="M1700 2422 c-20 -10 -42 -32 -52 -52 -22 -43 -24 -156 -4 -205 38
-90 170 -98 221 -12 16 25 20 50 20 112 -1 93 -19 135 -71 160 -42 20 -71 19
-114 -3z"/>
<path d="M1580 1856 l0 -166 37 0 c36 0 36 0 17 21 -16 18 -20 42 -24 162 -4
100 -9 142 -17 145 -10 3 -13 -34 -13 -162z"/>
<path d="M1655 1470 c-19 -38 -35 -74 -35 -80 0 -12 150 -14 150 -2 1 14 -65
151 -72 152 -4 0 -24 -31 -43 -70z"/>
</g>
</svg>
